<svg height="402pt" viewBox="0 -41 402.77333 402" width="402pt" xmlns="http://www.w3.org/2000/svg"><path d="m348.160156 143.625c0 18.851562-15.28125 34.132812-34.132812 34.132812-18.851563 0-34.132813-15.28125-34.132813-34.132812s15.28125-34.132812 34.132813-34.132812c18.851562 0 34.132812 15.28125 34.132812 34.132812zm0 0" fill="#f4a14e"/><path d="m348.160156 143.625h6.828125c-.007812-22.628906-18.339843-40.957031-40.960937-40.960938-22.621094.003907-40.957032 18.332032-40.960938 40.960938.003906 22.621094 18.339844 40.953125 40.960938 40.957031 22.621094-.003906 40.953125-18.335937 40.960937-40.957031h-13.65625c-.003906 7.558594-3.046875 14.339844-7.996093 19.304688-4.964844 4.953124-11.75 7.992187-19.308594 8-7.5625-.007813-14.34375-3.046876-19.308594-8-4.953125-4.964844-7.996094-11.746094-8-19.304688.003906-7.566406 3.046875-14.347656 8-19.308594 4.960938-4.953125 11.746094-7.996094 19.308594-8 7.5625.007813 14.34375 3.046875 19.308594 8 4.949218 4.960938 7.992187 11.746094 7.996093 19.308594zm0 0" fill="#54596e"/><path d="m143.359375 191.410156h-117.855469c-10.316406 0-18.675781-8.355468-18.675781-18.679687v-58.214844c0-10.316406 8.359375-18.679687 18.675781-18.679687h117.855469z" fill="#f4a14e"/><path d="m143.359375 191.410156v-6.828125h-117.855469c-6.539062-.015625-11.839844-5.308593-11.855468-11.851562v-58.214844c.015624-6.546875 5.316406-11.84375 11.855468-11.851563h111.027344v88.746094h6.828125v-6.828125 6.828125h6.828125v-95.574218c0-1.796876-.726562-3.554688-2.003906-4.832032-1.269532-1.269531-3.027344-1.996094-4.824219-1.996094h-117.855469c-14.089844.007813-25.503906 11.414063-25.503906 25.507813v58.214844c0 14.09375 11.414062 25.5 25.503906 25.5h117.855469c1.824219 0 3.539063-.703125 4.824219-2 1.292968-1.28125 2.003906-2.996094 2.003906-4.820313z" fill="#54596e"/><path d="m294.304688 279.097656-150.945313-80.859375v-109.226562l150.945313-80.863281c9.703124-3.878907 19.722656 4.789062 19.722656 17.054687v236.839844c0 12.265625-10.019532 20.933593-19.722656 17.054687zm0 0" fill="#fff35f"/><path d="m294.308594 279.09375 3.222656-6.015625-147.34375-78.929687v-101.050782l147.34375-78.929687-3.222656-6.019531 2.539062 6.332031c.816406-.316407 1.527344-.445313 2.21875-.445313 1.722656 0 3.597656.824219 5.269532 2.753906 1.640624 1.914063 2.867187 4.839844 2.867187 8.417969v236.839844c0 3.5625-1.226563 6.484375-2.867187 8.390625-1.660157 1.933594-3.546876 2.761719-5.269532 2.761719-.691406-.007813-1.425781-.121094-2.25-.449219l-2.507812 6.34375 3.222656-6.015625-3.222656 6.015625-2.515625 6.347656c2.359375.9375 4.832031 1.410156 7.273437 1.410156 6.242188 0 11.839844-3.042968 15.660156-7.539062 3.847657-4.515625 6.125-10.585938 6.125-17.265625v-236.839844c0-6.6875-2.277343-12.765625-6.125-17.28125-3.820312-4.496093-9.417968-7.539062-15.660156-7.539062-2.441406-.007813-4.925781.464843-7.300781 1.425781l-.683594.320312-150.945312 80.855469c-2.226563 1.195313-3.605469 3.496094-3.605469 6.019531v109.230469c0 2.523438 1.378906 4.824219 3.605469 6.011719l150.945312 80.863281.714844.324219z" fill="#54596e"/><path d="m368.640625 150.449219h27.304687c3.769532 0 6.828126-3.054688 6.828126-6.824219 0-3.773438-3.058594-6.828125-6.828126-6.828125h-27.304687c-3.769531 0-6.828125 3.054687-6.828125 6.828125 0 3.769531 3.054688 6.824219 6.828125 6.824219" fill="#54596e"/><path d="m372.734375 128.601562 27.308594-20.476562c3.015625-2.265625 3.625-6.542969 1.363281-9.558594-2.257812-3.019531-6.539062-3.628906-9.554688-1.367187l-27.308593 20.480469c-3.015625 2.261718-3.625 6.539062-1.363281 9.558593 2.261718 3.015625 6.539062 3.628907 9.554687 1.363281" fill="#54596e"/><path d="m400.042969 179.121094-27.308594-20.480469c-3.015625-2.261719-7.292969-1.648437-9.554687 1.367187-2.265626 3.015626-1.652344 7.292969 1.363281 9.558594l27.308593 20.480469c3.015626 2.261719 7.296876 1.648437 9.554688-1.367187 2.261719-3.019532 1.652344-7.296876-1.363281-9.558594" fill="#54596e"/><path d="m109.226562 314.289062h-55.136718c-7.253906 0-13.128906-5.878906-13.128906-13.125v-109.753906h68.265624l-20.480468 31.625v56.988282zm0 0" fill="#f4a14e"/><g fill="#54596e"><path d="m109.226562 314.289062v-6.824218h-55.136718c-3.480469-.007813-6.296875-2.832032-6.304688-6.300782v-102.933593h48.890625l-13.660156 21.09375c-.722656 1.117187-1.09375 2.382812-1.09375 3.714843v56.988282c0 1.226562.335937 2.441406.964844 3.5l20.480469 34.265625 5.859374-3.503907v-6.824218 6.824218l5.859376-3.503906-19.511719-32.648437v-53.085938l19.382812-29.929687c1.359375-2.101563 1.464844-4.773438.265625-6.972656-1.195312-2.199219-3.492187-3.566407-5.996094-3.566407h-68.265624c-1.796876 0-3.558594.730469-4.828126 2-1.269531 1.273438-2 3.027344-2 4.828125v109.753906c.003907 11.019532 8.929688 19.949219 19.957032 19.949219h55.136718c2.460938 0 4.722657-1.316406 5.9375-3.457031 1.214844-2.136719 1.1875-4.757812-.078124-6.867188zm0 0"/><path d="m109.226562 198.238281v27.304688c0 3.769531 3.058594 6.832031 6.828126 6.832031 3.769531 0 6.828124-3.0625 6.828124-6.832031v-27.304688c0-3.777343-3.058593-6.828125-6.828124-6.828125-3.773438 0-6.828126 3.050782-6.828126 6.828125"/><path d="m204.800781 119.730469c0 5.65625-4.585937 10.238281-10.242187 10.238281-5.652344 0-10.238282-4.582031-10.238282-10.238281s4.585938-10.238281 10.238282-10.238281c5.65625 0 10.242187 4.582031 10.242187 10.238281zm0 0"/><path d="m293.546875 119.730469c0 5.65625-4.585937 10.238281-10.238281 10.238281-5.65625 0-10.242188-4.582031-10.242188-10.238281s4.585938-10.238281 10.242188-10.238281c5.652344 0 10.238281 4.582031 10.238281 10.238281zm0 0"/><path d="m197.976562 158.484375c.105469-10.714844 95.464844-10.714844 95.570313 0v.226563c0 18.058593-21.394531 32.699218-47.785156 32.699218s-47.789063-14.640625-47.789063-32.699218zm0 0"/></g><path d="m265.089844 170.929688c0-3.769532-9.167969-6.824219-20.480469-6.824219-11.308594 0-20.480469 3.054687-20.480469 6.824219 0 3.769531 9.171875 6.828124 20.480469 6.828124 11.3125 0 20.480469-3.058593 20.480469-6.828124zm0 0" fill="#ff927d"/><path d="m27.308594 116.316406v13.652344c0 3.773438 3.054687 6.828125 6.824218 6.828125 3.769532 0 6.828126-3.054687 6.828126-6.828125v-13.652344c0-3.773437-3.058594-6.824218-6.828126-6.824218-3.769531 0-6.824218 3.050781-6.824218 6.824218" fill="#54596e"/><path d="m54.613281 116.316406v13.652344c0 3.773438 3.058594 6.828125 6.828125 6.828125 3.769532 0 6.824219-3.054687 6.824219-6.828125v-13.652344c0-3.773437-3.054687-6.824218-6.824219-6.824218-3.773437 0-6.828125 3.050781-6.828125 6.824218" fill="#54596e"/><path d="m136.53125 102.664062h-20.476562v81.917969h20.476562z" fill="#dc9653"/><path d="m136.53125 95.835938h-20.476562v6.828124h20.476562v81.917969h-20.476562v6.828125h20.476562z" fill="#54596e"/><path d="m143.359375 95.835938h-6.828125v95.574218h6.828125z" fill="#54596e"/></svg>